<svg width="945" height="977" fill="none" xmlns="http://www.w3.org/2000/svg"><g clip-path="url(#a)"><path fill-rule="evenodd" clip-rule="evenodd" d="M131.131 465.304l-49.093 4.344-12.684 47.624-19.301-45.348L.84 474.577l37.163-32.369-17.73-45.985 42.269 25.342 38.255-31.073-11.04 48.032 41.374 26.78zM177.696 796.545l-46.986-14.872-30.026 39.082-.375-49.283-46.447-16.479 46.754-15.586 1.32-49.267 29.271 39.65 47.263-13.968-28.664 40.091 27.89 40.632zM435.477 907.992l-71.776.422-24.116 67.604-22.582-68.132-71.748-2.045 57.819-42.53-20.226-68.869 58.316 41.847 59.248-40.518-21.778 68.393 56.843 43.828zM703.572 81.655L641.18 117.14l12.045 70.759-53.03-48.371-63.574 33.321 29.617-65.382-51.335-50.166 71.334 7.963L618.084.94l14.47 70.303 71.018 10.412zM117.773 286.282l.718-37.054-34.58-13.33 35.462-10.767 1.992-37.008 21.199 30.399 35.811-9.541-22.361 29.556 20.141 31.109-35.019-12.133-23.363 28.769zM332.22 187.811l5.496-58.535-53.138-25.157 57.368-12.861 7.505-58.312 29.96 50.587 57.777-10.882-38.852 44.125 28.203 51.587-53.973-23.315-40.346 42.763zM876.118 237.457l-32.931-53.818-61.829 12.57 41.008-47.95-31.061-54.918 58.275 24.184 42.633-46.512-4.993 62.895 57.409 26.174-61.36 14.688-7.151 62.687z" fill="#262E43"/></g><defs><clipPath id="a"><path fill="#fff" d="M0 0H945V977H0z"/></clipPath></defs></svg>