<svg width="24" height="25" fill="none" xmlns="http://www.w3.org/2000/svg"><path d="M19.944 8.056c.013.194.013.388.013.581 0 5.912-4.124 12.723-11.663 12.723-2.322 0-4.48-.734-6.294-2.007.33.041.647.055.99.055 1.916 0 3.68-.706 5.089-1.91-1.802-.042-3.313-1.33-3.833-3.102.254.042.508.07.774.07.368 0 .736-.056 1.079-.153-1.878-.415-3.287-2.215-3.287-4.388v-.056c.546.333 1.18.54 1.853.568-1.104-.803-1.827-2.173-1.827-3.724 0-.83.203-1.592.558-2.257 2.018 2.714 5.05 4.486 8.452 4.68a5.492 5.492 0 01-.102-1.025c0-2.464 1.828-4.471 4.1-4.471 1.18 0 2.245.54 2.994 1.412a7.673 7.673 0 002.602-1.08 4.411 4.411 0 01-1.802 2.464A7.685 7.685 0 0022 5.744a9.29 9.29 0 01-2.056 2.312z" fill="#FBFBFB"/></svg>