<svg width="50" height="50" fill="none" xmlns="http://www.w3.org/2000/svg"><path d="M38.356 48.987l-26.667.025c-5.866.005-10.67-4.79-10.677-10.656L.987 11.689C.98 5.823 5.776 1.02 11.643 1.012L38.309.987C44.176.98 48.98 5.776 48.987 11.643l.025 26.666c.007 5.868-4.79 10.672-10.656 10.678z" fill="url(#a)"/><path d="M38.356 48.987l-26.667.025c-5.866.005-10.67-4.79-10.677-10.656L.987 11.689C.98 5.823 5.776 1.02 11.643 1.012L38.309.987C44.176.98 48.98 5.776 48.987 11.643l.025 26.666c.007 5.868-4.79 10.672-10.656 10.678z" fill="url(#b)"/><path d="M25 34.333c-5.145 0-9.333-4.186-9.333-9.333s4.188-9.333 9.333-9.333c5.145 0 9.333 4.186 9.333 9.333S30.145 34.333 25 34.333zm0-16A6.674 6.674 0 0018.333 25 6.674 6.674 0 0025 31.667 6.674 6.674 0 0031.667 25 6.674 6.674 0 0025 18.333zM35 17a2 2 0 100-4 2 2 0 000 4z" fill="#fff"/><path d="M33 42.333H17c-5.145 0-9.333-4.186-9.333-9.333V17c0-5.147 4.188-9.333 9.333-9.333h16c5.145 0 9.333 4.186 9.333 9.333v16c0 5.147-4.188 9.333-9.333 9.333zm-16-32A6.674 6.674 0 0010.333 17v16A6.674 6.674 0 0017 39.667h16A6.674 6.674 0 0039.667 33V17A6.674 6.674 0 0033 10.333H17z" fill="#fff"/><defs><radialGradient id="a" cx="0" cy="0" r="1" gradientUnits="userSpaceOnUse" gradientTransform="translate(18.84 49.047) scale(59.8653)"><stop stop-color="#FD5"/><stop offset=".328" stop-color="#FF543F"/><stop offset=".348" stop-color="#FC5245"/><stop offset=".504" stop-color="#E64771"/><stop offset=".643" stop-color="#D53E91"/><stop offset=".761" stop-color="#CC39A4"/><stop offset=".841" stop-color="#C837AB"/></radialGradient><radialGradient id="b" cx="0" cy="0" r="1" gradientUnits="userSpaceOnUse" gradientTransform="matrix(39.7507 0 0 26.4859 8.715 .387)"><stop stop-color="#4168C9"/><stop offset=".999" stop-color="#4168C9" stop-opacity="0"/></radialGradient></defs></svg>