<svg width="54" height="54" fill="none" xmlns="http://www.w3.org/2000/svg"><path d="M27 .333C12.272.333.333 12.272.333 27 .333 41.728 12.272 53.667 27 53.667c14.728 0 26.667-11.939 26.667-26.667C53.667 12.272 41.727.333 27 .333z" fill="#03A9F4"/><path d="M43 17.827c-1.176.521-2.665 1.01-4 1.173 1.357-.805 3.51-2.483 4-4-1.268.745-3.561 1.541-5.057 1.83C34.719 13.41 27 14.672 27 21.666v2.666c-5.333 0-10.533-4.062-13.77-8-3.005 5.076 2.478 8.919 3.103 9.334-1.076-.034-3.113-.855-4-1.334v.076c0 3.156 2.215 5.299 5.216 5.896-.548.151-1.216.695-3.786.695.834 2.58 5.03 3.944 7.904 4-3.49 2.705-9.502 2.772-10.667 2.636C22.985 44.688 41.225 38.32 40.31 21c1.29-.91 1.813-1.861 2.69-3.173z" fill="#fff"/></svg>